<svg xmlns="http://www.w3.org/2000/svg" width="1195.8" height="441.6" viewBox="0 0 1195.8 441.6"><path fill="none" stroke="#231f20" stroke-miterlimit="10" stroke-width="20" d="M501.3 152.8c17.7 135.1-77.4 259-212.5 276.7S29.8 352.1 12.1 217A246.2 246.2 0 0 1 82 10.8c97.3-3.6 227.4 4.2 383.6 42.8a246 246 0 0 1 35.7 99.2z"/><path fill="none" stroke="#231f20" stroke-linecap="round" stroke-miterlimit="10" stroke-width="20.29" d="M343 180.1s-3.9-19.1-26-16.4c-18 2.2-24.9 21.4-20 41.2 6.5 26.1 72.9 150.3 3.2 212.8"/><path fill="#231f20" d="M315.5 424.3a241.8 241.8 0 0 1-60.3 7.3c-25.9 0-50-3.7-70.4-10.2-15.5-53.4-36.1-73.7-18.9-101.1a9.1 9.1 0 0 1 1.1-1.6c5.2-7.2 11.7-8.3 17.9-6.8a32.4 32.4 0 0 1 8.2 3.4q.8-3.2 1.8-6.3c11.3-38.5 26.4-79.3 35.6-113.4-2.1-10.2-1.5-19.3 4.1-29.2-21.1-11.1-36.9-44.2-37.6-83.3a145.3 145.3 0 0 1 2.7-30.1A103.3 103.3 0 0 1 212 19.8c8.8.1 18.2 10.6 22.1 25.3a59.3 59.3 0 0 1 1.7 9.8 37.2 37.2 0 0 1 12.5-2.1 38 38 0 0 1 12.3 2.2 57.1 57.1 0 0 1 1.7-9.6c3.7-14.2 12.6-24.5 21.1-25.3a107.7 107.7 0 0 1 13.3 33.1 142.2 142.2 0 0 1 3.7 29.9c.6 38.9-13.8 71.8-34.4 83.1 5.7 10 6.4 19 4.3 29.3 9 33.4 23.7 73.2 34.9 111.1.9 3 1.7 5.9 2.6 8.8 8.4-4.9 19.6-7.6 27.4 4.9 17.6 27.9-4.2 48.4-19.7 104zm299.1-140.5c-27.4 0-44.6-23.3-44.6-61.2v-3.8c0-38 17-61.5 44.8-61.5 22.9 0 35.3 14.3 39.9 35.9l-14.8 3.9c-4.1-18-11.5-27.6-25.1-27.6-19.4 0-28.4 19.9-28.4 47.6v6.5c0 27.9 9 47.9 28.5 47.9 14.5 0 22.1-11 26-29.2l14.5 3.7c-4.9 22.8-17.7 37.8-40.8 37.8zm104.9-16.2h-1.1c-8.5 10.6-17.3 15.3-27.8 15.3-13.1 0-24.2-8.1-24.2-23.4 0-18.1 17.7-29.8 52.7-30.1v-9.5c0-11.8-4.9-17-14.8-17s-16.5 2.8-26.8 8.6l-4.3-9.5c10.4-5.6 20.4-9.7 33.7-9.7 18.3 0 26.2 8.2 26.2 27v44.6c0 7.3 2.7 11.2 9.3 11.9v6.6c-13.4 0-21.4-5.9-22.9-14.8zm-.4-31.3c-28 0-38.7 9.9-38.7 21.6 0 9.9 6.4 15.5 15.4 15.5s16.7-4.2 23.3-13.3zm63.6 47.1c-11.9 0-19.5-5.4-19.5-19v-60h-16v-10.6h16v-28.7l14.6-7.5v36.2h22.4v10.6h-22.4v57.1c0 7.1 3.9 10.4 9.3 10.4s9.7-1.7 17-6v11.6c-7.3 4.1-13.7 5.9-21.4 5.9zm40.3-84.8h-8.8l5.4-39.3h16.7zm44.4 84.7c-14.1 0-24.2-5-31.7-11.6l6.8-8.5c7.2 6.5 15.7 10.2 25 10.2s16.9-4.8 16.9-13.6-3.9-11.9-19.9-17.3c-18.6-6.3-26-14.5-26-26.9s11.4-23.8 27.7-23.8c11.7 0 19.7 3.2 28.4 9.9l-7 8.8c-7.5-6.1-13.8-9-21.6-9-9.5 0-14.4 5.8-14.4 12.4s5.2 11.2 19 16c20.1 6.6 26.9 14.8 26.9 28.2 0 16.5-13.5 25.2-30.1 25.2zm91.2-1.6V159.3h73.3v12.4h-57.6v40.2h46.9v12h-46.9v45.4h59.7v12.4zm123.6 10.2c-5.6 17-13.4 22.5-26.6 22.5a33.5 33.5 0 0 1-14.8-3.1v-10.9h3.9c2.2 3.6 4.7 5.5 10 5.5s10.4-4.1 13.4-12.3l2.8-8-30.5-92.4h15.3l22 74.6 22.1-74.6h14.4zm40.3-53.7v-1.5c0-26.9 13.8-45.2 34-45.2s32.7 17.8 32.7 45.5v3.6h-52.6c.6 21.6 9.7 32.1 23.8 32.1 8.7 0 15.9-3.4 23.5-9.7l4.9 8.9c-8.6 7.1-17.5 11.4-30.2 11.4-21.6 0-36.1-16.4-36.1-45.1zm52.6-5.3c-1.1-21.2-6.8-31.9-18.6-31.9s-19 11.7-19.9 31.9z"/></svg>